<mxfile host="app.diagrams.net" agent="Mozilla/5.0 (Windows NT 10.0; Win64; x64) AppleWebKit/537.36 (KHTML, like Gecko) Chrome/134.0.0.0 Safari/537.36" version="26.2.0">
  <diagram name="Page-1" id="X0-G16CV8CJgLG2Z3c7C">
    <mxGraphModel dx="1044" dy="562" grid="1" gridSize="10" guides="1" tooltips="1" connect="1" arrows="1" fold="1" page="1" pageScale="1" pageWidth="850" pageHeight="1100" math="0" shadow="0">
      <root>
        <mxCell id="0" />
        <mxCell id="1" parent="0" />
        <mxCell id="ArH8Tm8JitJt1J3xj8gH-7" style="edgeStyle=orthogonalEdgeStyle;rounded=0;orthogonalLoop=1;jettySize=auto;html=1;exitX=0.5;exitY=1;exitDx=0;exitDy=0;entryX=0.5;entryY=0;entryDx=0;entryDy=0;" edge="1" parent="1" source="ArH8Tm8JitJt1J3xj8gH-1" target="ArH8Tm8JitJt1J3xj8gH-2">
          <mxGeometry relative="1" as="geometry" />
        </mxCell>
        <mxCell id="ArH8Tm8JitJt1J3xj8gH-1" value="Raw Network Traffic Data&lt;div&gt;(KDD Train+ Dataset)&lt;/div&gt;" style="rounded=0;whiteSpace=wrap;html=1;fontFamily=Times New Roman;" vertex="1" parent="1">
          <mxGeometry x="220" y="20" width="120" height="60" as="geometry" />
        </mxCell>
        <mxCell id="ArH8Tm8JitJt1J3xj8gH-8" value="" style="edgeStyle=orthogonalEdgeStyle;rounded=0;orthogonalLoop=1;jettySize=auto;html=1;" edge="1" parent="1" source="ArH8Tm8JitJt1J3xj8gH-2" target="ArH8Tm8JitJt1J3xj8gH-3">
          <mxGeometry relative="1" as="geometry" />
        </mxCell>
        <mxCell id="ArH8Tm8JitJt1J3xj8gH-2" value="&lt;font face=&quot;Times New Roman&quot;&gt;Data Pre-processing&lt;/font&gt;&lt;div&gt;&lt;font face=&quot;Times New Roman&quot;&gt;(Missing Values, Encoding, Scaling)&lt;/font&gt;&lt;/div&gt;" style="rounded=0;whiteSpace=wrap;html=1;" vertex="1" parent="1">
          <mxGeometry x="220" y="120" width="120" height="60" as="geometry" />
        </mxCell>
        <mxCell id="ArH8Tm8JitJt1J3xj8gH-9" value="" style="edgeStyle=orthogonalEdgeStyle;rounded=0;orthogonalLoop=1;jettySize=auto;html=1;" edge="1" parent="1" source="ArH8Tm8JitJt1J3xj8gH-3" target="ArH8Tm8JitJt1J3xj8gH-4">
          <mxGeometry relative="1" as="geometry" />
        </mxCell>
        <mxCell id="ArH8Tm8JitJt1J3xj8gH-3" value="Feature Selection&lt;div&gt;(Random Forest)&lt;/div&gt;" style="rounded=0;whiteSpace=wrap;html=1;fontFamily=Times New Roman;" vertex="1" parent="1">
          <mxGeometry x="220" y="250" width="120" height="60" as="geometry" />
        </mxCell>
        <mxCell id="ArH8Tm8JitJt1J3xj8gH-10" value="" style="edgeStyle=orthogonalEdgeStyle;rounded=0;orthogonalLoop=1;jettySize=auto;html=1;" edge="1" parent="1" source="ArH8Tm8JitJt1J3xj8gH-4" target="ArH8Tm8JitJt1J3xj8gH-5">
          <mxGeometry relative="1" as="geometry" />
        </mxCell>
        <mxCell id="ArH8Tm8JitJt1J3xj8gH-4" value="LSTM Network&lt;div&gt;(Sequential Pattern Learning)&lt;/div&gt;" style="rounded=0;whiteSpace=wrap;html=1;fontFamily=Times New Roman;" vertex="1" parent="1">
          <mxGeometry x="410" y="250" width="120" height="60" as="geometry" />
        </mxCell>
        <mxCell id="ArH8Tm8JitJt1J3xj8gH-11" value="" style="edgeStyle=orthogonalEdgeStyle;rounded=0;orthogonalLoop=1;jettySize=auto;html=1;" edge="1" parent="1" source="ArH8Tm8JitJt1J3xj8gH-5" target="ArH8Tm8JitJt1J3xj8gH-6">
          <mxGeometry relative="1" as="geometry" />
        </mxCell>
        <mxCell id="ArH8Tm8JitJt1J3xj8gH-5" value="SVM Classifier&lt;div&gt;(Final Prediction)&lt;/div&gt;" style="rounded=0;whiteSpace=wrap;html=1;fontFamily=Times New Roman;" vertex="1" parent="1">
          <mxGeometry x="410" y="360" width="120" height="60" as="geometry" />
        </mxCell>
        <mxCell id="ArH8Tm8JitJt1J3xj8gH-6" value="Intrusion Detection Output&lt;div&gt;(Normal/Malicious)&lt;/div&gt;" style="rounded=0;whiteSpace=wrap;html=1;fontFamily=Times New Roman;" vertex="1" parent="1">
          <mxGeometry x="410" y="480" width="120" height="60" as="geometry" />
        </mxCell>
      </root>
    </mxGraphModel>
  </diagram>
</mxfile>
